<mxfile host="app.diagrams.net" modified="2023-03-05T19:56:13.267Z" agent="5.0 (Windows NT 10.0; Win64; x64) AppleWebKit/537.36 (KHTML, like Gecko) Chrome/109.0.0.0 Safari/537.36 OPR/95.0.0.0" etag="JVojOHGMSy9kt15d4P2j" version="21.0.2" type="github">
  <diagram name="Strona-1" id="pCYO-B3yatbEwMQIHyl5">
    <mxGraphModel dx="1394" dy="766" grid="0" gridSize="10" guides="1" tooltips="1" connect="1" arrows="1" fold="1" page="1" pageScale="1" pageWidth="827" pageHeight="1169" math="0" shadow="0">
      <root>
        <mxCell id="0" />
        <mxCell id="1" parent="0" />
        <mxCell id="n4thcdciaZ63eMLzYOiJ-1" value="" style="ellipse;whiteSpace=wrap;html=1;aspect=fixed;" parent="1" vertex="1">
          <mxGeometry x="94" y="267" width="80" height="80" as="geometry" />
        </mxCell>
        <mxCell id="n4thcdciaZ63eMLzYOiJ-2" value="" style="ellipse;whiteSpace=wrap;html=1;aspect=fixed;" parent="1" vertex="1">
          <mxGeometry x="94" y="417" width="80" height="80" as="geometry" />
        </mxCell>
        <mxCell id="n4thcdciaZ63eMLzYOiJ-3" value="" style="endArrow=none;dashed=1;html=1;rounded=0;" parent="1" edge="1">
          <mxGeometry width="50" height="50" relative="1" as="geometry">
            <mxPoint x="134" y="407" as="sourcePoint" />
            <mxPoint x="134" y="357" as="targetPoint" />
          </mxGeometry>
        </mxCell>
        <mxCell id="n4thcdciaZ63eMLzYOiJ-4" value="" style="ellipse;whiteSpace=wrap;html=1;aspect=fixed;" parent="1" vertex="1">
          <mxGeometry x="94" y="167" width="80" height="80" as="geometry" />
        </mxCell>
        <mxCell id="n4thcdciaZ63eMLzYOiJ-5" value="" style="ellipse;whiteSpace=wrap;html=1;aspect=fixed;" parent="1" vertex="1">
          <mxGeometry x="254" y="57" width="80" height="80" as="geometry" />
        </mxCell>
        <mxCell id="n4thcdciaZ63eMLzYOiJ-6" value="" style="ellipse;whiteSpace=wrap;html=1;aspect=fixed;" parent="1" vertex="1">
          <mxGeometry x="254" y="157" width="80" height="80" as="geometry" />
        </mxCell>
        <mxCell id="n4thcdciaZ63eMLzYOiJ-7" value="" style="ellipse;whiteSpace=wrap;html=1;aspect=fixed;" parent="1" vertex="1">
          <mxGeometry x="254" y="257" width="80" height="80" as="geometry" />
        </mxCell>
        <mxCell id="n4thcdciaZ63eMLzYOiJ-8" value="" style="ellipse;whiteSpace=wrap;html=1;aspect=fixed;" parent="1" vertex="1">
          <mxGeometry x="254" y="357" width="80" height="80" as="geometry" />
        </mxCell>
        <mxCell id="n4thcdciaZ63eMLzYOiJ-9" value="" style="endArrow=none;dashed=1;html=1;rounded=0;" parent="1" edge="1">
          <mxGeometry width="50" height="50" relative="1" as="geometry">
            <mxPoint x="293.5" y="497" as="sourcePoint" />
            <mxPoint x="293.5" y="447" as="targetPoint" />
          </mxGeometry>
        </mxCell>
        <mxCell id="n4thcdciaZ63eMLzYOiJ-10" value="" style="ellipse;whiteSpace=wrap;html=1;aspect=fixed;" parent="1" vertex="1">
          <mxGeometry x="254" y="507" width="80" height="80" as="geometry" />
        </mxCell>
        <mxCell id="n4thcdciaZ63eMLzYOiJ-11" value="" style="endArrow=none;html=1;rounded=0;entryX=0;entryY=1;entryDx=0;entryDy=0;exitX=1;exitY=0.5;exitDx=0;exitDy=0;" parent="1" source="n4thcdciaZ63eMLzYOiJ-4" target="n4thcdciaZ63eMLzYOiJ-5" edge="1">
          <mxGeometry width="50" height="50" relative="1" as="geometry">
            <mxPoint x="174" y="257" as="sourcePoint" />
            <mxPoint x="244" y="127" as="targetPoint" />
          </mxGeometry>
        </mxCell>
        <mxCell id="n4thcdciaZ63eMLzYOiJ-12" value="" style="endArrow=none;html=1;rounded=0;entryX=0.038;entryY=0.675;entryDx=0;entryDy=0;exitX=1;exitY=0.5;exitDx=0;exitDy=0;entryPerimeter=0;" parent="1" source="n4thcdciaZ63eMLzYOiJ-4" target="n4thcdciaZ63eMLzYOiJ-6" edge="1">
          <mxGeometry width="50" height="50" relative="1" as="geometry">
            <mxPoint x="182" y="279" as="sourcePoint" />
            <mxPoint x="276" y="135" as="targetPoint" />
          </mxGeometry>
        </mxCell>
        <mxCell id="n4thcdciaZ63eMLzYOiJ-13" value="" style="endArrow=none;html=1;rounded=0;entryX=0;entryY=0.5;entryDx=0;entryDy=0;exitX=1;exitY=0.5;exitDx=0;exitDy=0;" parent="1" source="n4thcdciaZ63eMLzYOiJ-4" target="n4thcdciaZ63eMLzYOiJ-7" edge="1">
          <mxGeometry width="50" height="50" relative="1" as="geometry">
            <mxPoint x="192" y="289" as="sourcePoint" />
            <mxPoint x="286" y="145" as="targetPoint" />
          </mxGeometry>
        </mxCell>
        <mxCell id="n4thcdciaZ63eMLzYOiJ-15" value="" style="endArrow=none;html=1;rounded=0;exitX=1;exitY=0.5;exitDx=0;exitDy=0;entryX=0.05;entryY=0.288;entryDx=0;entryDy=0;entryPerimeter=0;" parent="1" source="n4thcdciaZ63eMLzYOiJ-4" target="n4thcdciaZ63eMLzYOiJ-8" edge="1">
          <mxGeometry width="50" height="50" relative="1" as="geometry">
            <mxPoint x="194" y="307" as="sourcePoint" />
            <mxPoint x="254" y="387" as="targetPoint" />
          </mxGeometry>
        </mxCell>
        <mxCell id="n4thcdciaZ63eMLzYOiJ-16" value="" style="endArrow=none;html=1;rounded=0;exitX=1;exitY=0.5;exitDx=0;exitDy=0;entryX=0;entryY=0;entryDx=0;entryDy=0;" parent="1" source="n4thcdciaZ63eMLzYOiJ-4" target="n4thcdciaZ63eMLzYOiJ-10" edge="1">
          <mxGeometry width="50" height="50" relative="1" as="geometry">
            <mxPoint x="204" y="317" as="sourcePoint" />
            <mxPoint x="280" y="509" as="targetPoint" />
          </mxGeometry>
        </mxCell>
        <mxCell id="n4thcdciaZ63eMLzYOiJ-17" value="" style="endArrow=none;html=1;rounded=0;entryX=0;entryY=1;entryDx=0;entryDy=0;exitX=1;exitY=0.5;exitDx=0;exitDy=0;" parent="1" source="n4thcdciaZ63eMLzYOiJ-1" target="n4thcdciaZ63eMLzYOiJ-5" edge="1">
          <mxGeometry width="50" height="50" relative="1" as="geometry">
            <mxPoint x="194" y="307" as="sourcePoint" />
            <mxPoint x="276" y="135" as="targetPoint" />
          </mxGeometry>
        </mxCell>
        <mxCell id="n4thcdciaZ63eMLzYOiJ-18" value="" style="endArrow=none;html=1;rounded=0;exitX=1;exitY=0.5;exitDx=0;exitDy=0;entryX=0.038;entryY=0.7;entryDx=0;entryDy=0;entryPerimeter=0;" parent="1" source="n4thcdciaZ63eMLzYOiJ-1" target="n4thcdciaZ63eMLzYOiJ-6" edge="1">
          <mxGeometry width="50" height="50" relative="1" as="geometry">
            <mxPoint x="204" y="317" as="sourcePoint" />
            <mxPoint x="254" y="237" as="targetPoint" />
          </mxGeometry>
        </mxCell>
        <mxCell id="n4thcdciaZ63eMLzYOiJ-21" value="" style="endArrow=none;dashed=1;html=1;dashPattern=1 3;strokeWidth=2;rounded=0;" parent="1" edge="1">
          <mxGeometry width="50" height="50" relative="1" as="geometry">
            <mxPoint x="374" y="96.5" as="sourcePoint" />
            <mxPoint x="474" y="96.5" as="targetPoint" />
          </mxGeometry>
        </mxCell>
        <mxCell id="n4thcdciaZ63eMLzYOiJ-23" value="" style="endArrow=none;dashed=1;html=1;dashPattern=1 3;strokeWidth=2;rounded=0;" parent="1" edge="1">
          <mxGeometry width="50" height="50" relative="1" as="geometry">
            <mxPoint x="374" y="196.5" as="sourcePoint" />
            <mxPoint x="474" y="196.5" as="targetPoint" />
          </mxGeometry>
        </mxCell>
        <mxCell id="n4thcdciaZ63eMLzYOiJ-24" value="" style="endArrow=none;dashed=1;html=1;dashPattern=1 3;strokeWidth=2;rounded=0;" parent="1" edge="1">
          <mxGeometry width="50" height="50" relative="1" as="geometry">
            <mxPoint x="374" y="296.5" as="sourcePoint" />
            <mxPoint x="474" y="296.5" as="targetPoint" />
          </mxGeometry>
        </mxCell>
        <mxCell id="n4thcdciaZ63eMLzYOiJ-25" value="" style="endArrow=none;dashed=1;html=1;dashPattern=1 3;strokeWidth=2;rounded=0;" parent="1" edge="1">
          <mxGeometry width="50" height="50" relative="1" as="geometry">
            <mxPoint x="374" y="396.5" as="sourcePoint" />
            <mxPoint x="474" y="396.5" as="targetPoint" />
          </mxGeometry>
        </mxCell>
        <mxCell id="n4thcdciaZ63eMLzYOiJ-26" value="" style="endArrow=none;dashed=1;html=1;dashPattern=1 3;strokeWidth=2;rounded=0;" parent="1" edge="1">
          <mxGeometry width="50" height="50" relative="1" as="geometry">
            <mxPoint x="374" y="546.5" as="sourcePoint" />
            <mxPoint x="474" y="546.5" as="targetPoint" />
          </mxGeometry>
        </mxCell>
        <mxCell id="n4thcdciaZ63eMLzYOiJ-27" value="" style="ellipse;whiteSpace=wrap;html=1;aspect=fixed;" parent="1" vertex="1">
          <mxGeometry x="514" y="57" width="80" height="80" as="geometry" />
        </mxCell>
        <mxCell id="n4thcdciaZ63eMLzYOiJ-28" value="" style="ellipse;whiteSpace=wrap;html=1;aspect=fixed;" parent="1" vertex="1">
          <mxGeometry x="514" y="157" width="80" height="80" as="geometry" />
        </mxCell>
        <mxCell id="n4thcdciaZ63eMLzYOiJ-29" value="" style="ellipse;whiteSpace=wrap;html=1;aspect=fixed;" parent="1" vertex="1">
          <mxGeometry x="514" y="257" width="80" height="80" as="geometry" />
        </mxCell>
        <mxCell id="n4thcdciaZ63eMLzYOiJ-30" value="" style="ellipse;whiteSpace=wrap;html=1;aspect=fixed;" parent="1" vertex="1">
          <mxGeometry x="514" y="357" width="80" height="80" as="geometry" />
        </mxCell>
        <mxCell id="n4thcdciaZ63eMLzYOiJ-31" value="" style="endArrow=none;dashed=1;html=1;rounded=0;" parent="1" edge="1">
          <mxGeometry width="50" height="50" relative="1" as="geometry">
            <mxPoint x="553.5" y="497" as="sourcePoint" />
            <mxPoint x="553.5" y="447" as="targetPoint" />
          </mxGeometry>
        </mxCell>
        <mxCell id="n4thcdciaZ63eMLzYOiJ-32" value="" style="ellipse;whiteSpace=wrap;html=1;aspect=fixed;" parent="1" vertex="1">
          <mxGeometry x="514" y="507" width="80" height="80" as="geometry" />
        </mxCell>
        <mxCell id="n4thcdciaZ63eMLzYOiJ-33" value="" style="ellipse;whiteSpace=wrap;html=1;aspect=fixed;" parent="1" vertex="1">
          <mxGeometry x="704" y="267" width="80" height="80" as="geometry" />
        </mxCell>
        <mxCell id="n4thcdciaZ63eMLzYOiJ-34" value="" style="ellipse;whiteSpace=wrap;html=1;aspect=fixed;" parent="1" vertex="1">
          <mxGeometry x="704" y="417" width="80" height="80" as="geometry" />
        </mxCell>
        <mxCell id="n4thcdciaZ63eMLzYOiJ-35" value="" style="endArrow=none;dashed=1;html=1;rounded=0;" parent="1" edge="1">
          <mxGeometry width="50" height="50" relative="1" as="geometry">
            <mxPoint x="744" y="407" as="sourcePoint" />
            <mxPoint x="744" y="357" as="targetPoint" />
          </mxGeometry>
        </mxCell>
        <mxCell id="n4thcdciaZ63eMLzYOiJ-36" value="" style="ellipse;whiteSpace=wrap;html=1;aspect=fixed;" parent="1" vertex="1">
          <mxGeometry x="704" y="167" width="80" height="80" as="geometry" />
        </mxCell>
        <mxCell id="n4thcdciaZ63eMLzYOiJ-37" value="" style="endArrow=none;html=1;rounded=0;entryX=0;entryY=0.5;entryDx=0;entryDy=0;exitX=1;exitY=0.5;exitDx=0;exitDy=0;" parent="1" source="n4thcdciaZ63eMLzYOiJ-1" target="n4thcdciaZ63eMLzYOiJ-7" edge="1">
          <mxGeometry width="50" height="50" relative="1" as="geometry">
            <mxPoint x="454" y="437" as="sourcePoint" />
            <mxPoint x="504" y="387" as="targetPoint" />
          </mxGeometry>
        </mxCell>
        <mxCell id="n4thcdciaZ63eMLzYOiJ-38" value="" style="endArrow=none;html=1;rounded=0;exitX=1;exitY=0.5;exitDx=0;exitDy=0;entryX=0.05;entryY=0.3;entryDx=0;entryDy=0;entryPerimeter=0;" parent="1" source="n4thcdciaZ63eMLzYOiJ-1" target="n4thcdciaZ63eMLzYOiJ-8" edge="1">
          <mxGeometry width="50" height="50" relative="1" as="geometry">
            <mxPoint x="454" y="437" as="sourcePoint" />
            <mxPoint x="224" y="387" as="targetPoint" />
          </mxGeometry>
        </mxCell>
        <mxCell id="n4thcdciaZ63eMLzYOiJ-39" value="" style="endArrow=none;html=1;rounded=0;entryX=0;entryY=0;entryDx=0;entryDy=0;" parent="1" target="n4thcdciaZ63eMLzYOiJ-10" edge="1">
          <mxGeometry width="50" height="50" relative="1" as="geometry">
            <mxPoint x="174" y="307" as="sourcePoint" />
            <mxPoint x="264" y="517" as="targetPoint" />
          </mxGeometry>
        </mxCell>
        <mxCell id="n4thcdciaZ63eMLzYOiJ-40" value="" style="endArrow=none;html=1;rounded=0;entryX=0;entryY=0.5;entryDx=0;entryDy=0;exitX=1;exitY=0.5;exitDx=0;exitDy=0;" parent="1" source="n4thcdciaZ63eMLzYOiJ-27" target="n4thcdciaZ63eMLzYOiJ-36" edge="1">
          <mxGeometry width="50" height="50" relative="1" as="geometry">
            <mxPoint x="454" y="437" as="sourcePoint" />
            <mxPoint x="504" y="387" as="targetPoint" />
          </mxGeometry>
        </mxCell>
        <mxCell id="n4thcdciaZ63eMLzYOiJ-41" value="" style="endArrow=none;html=1;rounded=0;entryX=0;entryY=0.5;entryDx=0;entryDy=0;exitX=1;exitY=0.5;exitDx=0;exitDy=0;" parent="1" source="n4thcdciaZ63eMLzYOiJ-28" target="n4thcdciaZ63eMLzYOiJ-36" edge="1">
          <mxGeometry width="50" height="50" relative="1" as="geometry">
            <mxPoint x="464" y="447" as="sourcePoint" />
            <mxPoint x="514" y="397" as="targetPoint" />
          </mxGeometry>
        </mxCell>
        <mxCell id="n4thcdciaZ63eMLzYOiJ-42" value="" style="endArrow=none;html=1;rounded=0;exitX=1;exitY=0.5;exitDx=0;exitDy=0;" parent="1" source="n4thcdciaZ63eMLzYOiJ-29" edge="1">
          <mxGeometry width="50" height="50" relative="1" as="geometry">
            <mxPoint x="474" y="457" as="sourcePoint" />
            <mxPoint x="704" y="207" as="targetPoint" />
          </mxGeometry>
        </mxCell>
        <mxCell id="n4thcdciaZ63eMLzYOiJ-43" value="" style="endArrow=none;html=1;rounded=0;exitX=1;exitY=0.5;exitDx=0;exitDy=0;" parent="1" source="n4thcdciaZ63eMLzYOiJ-30" edge="1">
          <mxGeometry width="50" height="50" relative="1" as="geometry">
            <mxPoint x="484" y="467" as="sourcePoint" />
            <mxPoint x="704" y="207" as="targetPoint" />
          </mxGeometry>
        </mxCell>
        <mxCell id="n4thcdciaZ63eMLzYOiJ-44" value="" style="endArrow=none;html=1;rounded=0;entryX=0;entryY=0.5;entryDx=0;entryDy=0;exitX=1;exitY=0.5;exitDx=0;exitDy=0;" parent="1" source="n4thcdciaZ63eMLzYOiJ-27" target="n4thcdciaZ63eMLzYOiJ-33" edge="1">
          <mxGeometry width="50" height="50" relative="1" as="geometry">
            <mxPoint x="494" y="477" as="sourcePoint" />
            <mxPoint x="544" y="427" as="targetPoint" />
          </mxGeometry>
        </mxCell>
        <mxCell id="n4thcdciaZ63eMLzYOiJ-45" value="" style="endArrow=none;html=1;rounded=0;entryX=0;entryY=0.5;entryDx=0;entryDy=0;exitX=1;exitY=0.5;exitDx=0;exitDy=0;" parent="1" source="n4thcdciaZ63eMLzYOiJ-28" target="n4thcdciaZ63eMLzYOiJ-33" edge="1">
          <mxGeometry width="50" height="50" relative="1" as="geometry">
            <mxPoint x="504" y="487" as="sourcePoint" />
            <mxPoint x="554" y="437" as="targetPoint" />
          </mxGeometry>
        </mxCell>
        <mxCell id="n4thcdciaZ63eMLzYOiJ-46" value="" style="endArrow=none;html=1;rounded=0;exitX=1;exitY=0.5;exitDx=0;exitDy=0;" parent="1" source="n4thcdciaZ63eMLzYOiJ-29" edge="1">
          <mxGeometry width="50" height="50" relative="1" as="geometry">
            <mxPoint x="514" y="497" as="sourcePoint" />
            <mxPoint x="704" y="307" as="targetPoint" />
          </mxGeometry>
        </mxCell>
        <mxCell id="n4thcdciaZ63eMLzYOiJ-47" value="" style="endArrow=none;html=1;rounded=0;" parent="1" edge="1">
          <mxGeometry width="50" height="50" relative="1" as="geometry">
            <mxPoint x="594" y="397" as="sourcePoint" />
            <mxPoint x="704" y="307" as="targetPoint" />
          </mxGeometry>
        </mxCell>
        <mxCell id="n4thcdciaZ63eMLzYOiJ-48" value="" style="endArrow=none;html=1;rounded=0;entryX=0;entryY=0.5;entryDx=0;entryDy=0;exitX=1;exitY=0.5;exitDx=0;exitDy=0;" parent="1" source="n4thcdciaZ63eMLzYOiJ-27" target="n4thcdciaZ63eMLzYOiJ-34" edge="1">
          <mxGeometry width="50" height="50" relative="1" as="geometry">
            <mxPoint x="594" y="107" as="sourcePoint" />
            <mxPoint x="584" y="467" as="targetPoint" />
          </mxGeometry>
        </mxCell>
        <mxCell id="n4thcdciaZ63eMLzYOiJ-49" value="" style="endArrow=none;html=1;rounded=0;exitX=1;exitY=0.5;exitDx=0;exitDy=0;" parent="1" source="n4thcdciaZ63eMLzYOiJ-28" edge="1">
          <mxGeometry width="50" height="50" relative="1" as="geometry">
            <mxPoint x="544" y="527" as="sourcePoint" />
            <mxPoint x="704" y="457" as="targetPoint" />
          </mxGeometry>
        </mxCell>
        <mxCell id="n4thcdciaZ63eMLzYOiJ-50" value="" style="endArrow=none;html=1;rounded=0;exitX=1;exitY=0.5;exitDx=0;exitDy=0;" parent="1" source="n4thcdciaZ63eMLzYOiJ-29" edge="1">
          <mxGeometry width="50" height="50" relative="1" as="geometry">
            <mxPoint x="554" y="537" as="sourcePoint" />
            <mxPoint x="704" y="457" as="targetPoint" />
          </mxGeometry>
        </mxCell>
        <mxCell id="n4thcdciaZ63eMLzYOiJ-51" value="" style="endArrow=none;html=1;rounded=0;" parent="1" edge="1">
          <mxGeometry width="50" height="50" relative="1" as="geometry">
            <mxPoint x="594" y="397" as="sourcePoint" />
            <mxPoint x="704" y="457" as="targetPoint" />
          </mxGeometry>
        </mxCell>
        <mxCell id="n4thcdciaZ63eMLzYOiJ-52" value="" style="endArrow=none;html=1;rounded=0;exitX=1;exitY=0;exitDx=0;exitDy=0;" parent="1" source="n4thcdciaZ63eMLzYOiJ-32" edge="1">
          <mxGeometry width="50" height="50" relative="1" as="geometry">
            <mxPoint x="574" y="557" as="sourcePoint" />
            <mxPoint x="704" y="457" as="targetPoint" />
          </mxGeometry>
        </mxCell>
        <mxCell id="n4thcdciaZ63eMLzYOiJ-53" value="" style="endArrow=none;html=1;rounded=0;exitX=1;exitY=0;exitDx=0;exitDy=0;" parent="1" source="n4thcdciaZ63eMLzYOiJ-32" edge="1">
          <mxGeometry width="50" height="50" relative="1" as="geometry">
            <mxPoint x="584" y="567" as="sourcePoint" />
            <mxPoint x="704" y="307" as="targetPoint" />
          </mxGeometry>
        </mxCell>
        <mxCell id="n4thcdciaZ63eMLzYOiJ-56" value="" style="endArrow=none;html=1;rounded=0;entryX=0;entryY=0.5;entryDx=0;entryDy=0;exitX=1;exitY=0;exitDx=0;exitDy=0;" parent="1" source="n4thcdciaZ63eMLzYOiJ-32" target="n4thcdciaZ63eMLzYOiJ-36" edge="1">
          <mxGeometry width="50" height="50" relative="1" as="geometry">
            <mxPoint x="594" y="577" as="sourcePoint" />
            <mxPoint x="644" y="527" as="targetPoint" />
          </mxGeometry>
        </mxCell>
        <mxCell id="n4thcdciaZ63eMLzYOiJ-57" value="" style="endArrow=none;html=1;rounded=0;entryX=1;entryY=0;entryDx=0;entryDy=0;exitX=0;exitY=1;exitDx=0;exitDy=0;" parent="1" source="n4thcdciaZ63eMLzYOiJ-5" target="n4thcdciaZ63eMLzYOiJ-2" edge="1">
          <mxGeometry width="50" height="50" relative="1" as="geometry">
            <mxPoint x="604" y="587" as="sourcePoint" />
            <mxPoint x="654" y="537" as="targetPoint" />
          </mxGeometry>
        </mxCell>
        <mxCell id="n4thcdciaZ63eMLzYOiJ-58" value="" style="endArrow=none;html=1;rounded=0;exitX=1;exitY=0;exitDx=0;exitDy=0;entryX=0.038;entryY=0.713;entryDx=0;entryDy=0;entryPerimeter=0;" parent="1" source="n4thcdciaZ63eMLzYOiJ-2" target="n4thcdciaZ63eMLzYOiJ-6" edge="1">
          <mxGeometry width="50" height="50" relative="1" as="geometry">
            <mxPoint x="614" y="597" as="sourcePoint" />
            <mxPoint x="664" y="547" as="targetPoint" />
          </mxGeometry>
        </mxCell>
        <mxCell id="n4thcdciaZ63eMLzYOiJ-59" value="" style="endArrow=none;html=1;rounded=0;exitX=1;exitY=0;exitDx=0;exitDy=0;entryX=0;entryY=0.5;entryDx=0;entryDy=0;" parent="1" source="n4thcdciaZ63eMLzYOiJ-2" target="n4thcdciaZ63eMLzYOiJ-7" edge="1">
          <mxGeometry width="50" height="50" relative="1" as="geometry">
            <mxPoint x="624" y="607" as="sourcePoint" />
            <mxPoint x="674" y="557" as="targetPoint" />
          </mxGeometry>
        </mxCell>
        <mxCell id="n4thcdciaZ63eMLzYOiJ-60" value="" style="endArrow=none;html=1;rounded=0;exitX=1;exitY=0;exitDx=0;exitDy=0;entryX=0.013;entryY=0.313;entryDx=0;entryDy=0;entryPerimeter=0;" parent="1" source="n4thcdciaZ63eMLzYOiJ-2" target="n4thcdciaZ63eMLzYOiJ-8" edge="1">
          <mxGeometry width="50" height="50" relative="1" as="geometry">
            <mxPoint x="634" y="617" as="sourcePoint" />
            <mxPoint x="254" y="377" as="targetPoint" />
          </mxGeometry>
        </mxCell>
        <mxCell id="n4thcdciaZ63eMLzYOiJ-61" value="" style="endArrow=none;html=1;rounded=0;exitX=1;exitY=0;exitDx=0;exitDy=0;entryX=0;entryY=0;entryDx=0;entryDy=0;" parent="1" source="n4thcdciaZ63eMLzYOiJ-2" target="n4thcdciaZ63eMLzYOiJ-10" edge="1">
          <mxGeometry width="50" height="50" relative="1" as="geometry">
            <mxPoint x="644" y="627" as="sourcePoint" />
            <mxPoint x="694" y="577" as="targetPoint" />
          </mxGeometry>
        </mxCell>
        <mxCell id="n4thcdciaZ63eMLzYOiJ-74" value="" style="shape=curlyBracket;whiteSpace=wrap;html=1;rounded=1;flipH=1;labelPosition=right;verticalLabelPosition=middle;align=left;verticalAlign=middle;rotation=90;" parent="1" vertex="1">
          <mxGeometry x="124" y="482" width="20" height="120" as="geometry" />
        </mxCell>
        <mxCell id="n4thcdciaZ63eMLzYOiJ-75" value="" style="shape=curlyBracket;whiteSpace=wrap;html=1;rounded=1;flipH=1;labelPosition=right;verticalLabelPosition=middle;align=left;verticalAlign=middle;rotation=90;" parent="1" vertex="1">
          <mxGeometry x="413.25" y="463.25" width="20" height="347.5" as="geometry" />
        </mxCell>
        <mxCell id="n4thcdciaZ63eMLzYOiJ-76" value="" style="shape=curlyBracket;whiteSpace=wrap;html=1;rounded=1;flipH=1;labelPosition=right;verticalLabelPosition=middle;align=left;verticalAlign=middle;rotation=90;" parent="1" vertex="1">
          <mxGeometry x="729" y="482" width="20" height="120" as="geometry" />
        </mxCell>
        <mxCell id="n4thcdciaZ63eMLzYOiJ-77" value="Input Layer" style="text;html=1;strokeColor=none;fillColor=none;align=center;verticalAlign=middle;whiteSpace=wrap;rounded=0;" parent="1" vertex="1">
          <mxGeometry x="89" y="562" width="90" height="30" as="geometry" />
        </mxCell>
        <mxCell id="n4thcdciaZ63eMLzYOiJ-78" value="Output Layer" style="text;html=1;strokeColor=none;fillColor=none;align=center;verticalAlign=middle;whiteSpace=wrap;rounded=0;" parent="1" vertex="1">
          <mxGeometry x="694" y="562" width="90" height="30" as="geometry" />
        </mxCell>
        <mxCell id="n4thcdciaZ63eMLzYOiJ-79" value="Hidden Layers" style="text;html=1;strokeColor=none;fillColor=none;align=center;verticalAlign=middle;whiteSpace=wrap;rounded=0;" parent="1" vertex="1">
          <mxGeometry x="366" y="657" width="90" height="30" as="geometry" />
        </mxCell>
      </root>
    </mxGraphModel>
  </diagram>
</mxfile>
